<?xml version="1.0" encoding="UTF-8" standalone="no"?>
<!-- Created with Inkscape (http://www.inkscape.org/) -->

<svg
   xmlns:dc="http://purl.org/dc/elements/1.1/"
   xmlns:cc="http://creativecommons.org/ns#"
   xmlns:rdf="http://www.w3.org/1999/02/22-rdf-syntax-ns#"
   xmlns:svg="http://www.w3.org/2000/svg"
   xmlns="http://www.w3.org/2000/svg"
   xmlns:sodipodi="http://sodipodi.sourceforge.net/DTD/sodipodi-0.dtd"
   xmlns:inkscape="http://www.inkscape.org/namespaces/inkscape"
   width="131.76613mm"
   height="64.236481mm"
   viewBox="0 0 131.76613 64.236481"
   version="1.1"
   id="svg8"
   inkscape:version="0.92.4 5da689c313, 2019-01-14"
   sodipodi:docname="tetrahedrons.svg">
  <defs
     id="defs2" />
  <sodipodi:namedview
     id="base"
     pagecolor="#ffffff"
     bordercolor="#666666"
     borderopacity="1.0"
     inkscape:pageopacity="0.0"
     inkscape:pageshadow="2"
     inkscape:zoom="7.9195959"
     inkscape:cx="435.93586"
     inkscape:cy="166.18818"
     inkscape:document-units="mm"
     inkscape:current-layer="layer1"
     showgrid="false"
     inkscape:window-width="1890"
     inkscape:window-height="1159"
     inkscape:window-x="0"
     inkscape:window-y="0"
     inkscape:window-maximized="1"
     fit-margin-top="0"
     fit-margin-left="0"
     fit-margin-right="0"
     fit-margin-bottom="0" />
  <metadata
     id="metadata5">
    <rdf:RDF>
      <cc:Work
         rdf:about="">
        <dc:format>image/svg+xml</dc:format>
        <dc:type
           rdf:resource="http://purl.org/dc/dcmitype/StillImage" />
        <dc:title></dc:title>
      </cc:Work>
    </rdf:RDF>
  </metadata>
  <g
     inkscape:label="Layer 1"
     inkscape:groupmode="layer"
     id="layer1"
     transform="translate(-47.987964,-84.523063)">
    <path
       style="fill:none;fill-rule:evenodd;stroke:#000000;stroke-width:0.26458332px;stroke-linecap:butt;stroke-linejoin:miter;stroke-opacity:1"
       d="M 48.418941,126.57072 60.393608,110.55641 79.790965,84.615369 Z"
       id="path3713"
       inkscape:connector-curvature="0"
       sodipodi:nodetypes="cccc" />
    <path
       style="fill:none;fill-rule:evenodd;stroke:#000000;stroke-width:0.26458332px;stroke-linecap:butt;stroke-linejoin:miter;stroke-opacity:1"
       d="M 79.790965,84.615369 93.776083,146.22548 48.418941,126.57072 108.13918,113.71953 93.776083,146.22548"
       id="path3715"
       inkscape:connector-curvature="0"
       sodipodi:nodetypes="ccccc" />
    <path
       style="fill:none;fill-rule:evenodd;stroke:#000000;stroke-width:0.26458332px;stroke-linecap:butt;stroke-linejoin:miter;stroke-opacity:1"
       d="M 108.13918,113.71953 79.790965,84.615369"
       id="path3717"
       inkscape:connector-curvature="0" />
    <path
       style="fill:#0000ff;fill-rule:evenodd;stroke:#000000;stroke-width:0.26458332px;stroke-linecap:butt;stroke-linejoin:miter;stroke-opacity:1"
       d="m 60.608114,110.59572 6.028387,23.66816 7.491651,-13.2919 z"
       id="path3719"
       inkscape:connector-curvature="0"
       sodipodi:nodetypes="cccc" />
    <path
       style="fill:none;fill-rule:evenodd;stroke:#000000;stroke-width:0.26458332px;stroke-linecap:butt;stroke-linejoin:miter;stroke-opacity:1"
       d="M 119.91284,128.87968 151.28486,86.924323 Z"
       id="path3713-9"
       inkscape:connector-curvature="0" />
    <path
       style="fill:none;fill-rule:evenodd;stroke:#000000;stroke-width:0.26458332px;stroke-linecap:butt;stroke-linejoin:miter;stroke-opacity:1"
       d="m 151.28486,86.924323 13.98512,61.610117 -45.35714,-19.65476 m 59.72024,-12.85119 -14.3631,32.50595"
       id="path3715-3"
       inkscape:connector-curvature="0"
       sodipodi:nodetypes="ccccc" />
    <path
       style="fill:none;fill-rule:evenodd;stroke:#000000;stroke-width:0.26458332px;stroke-linecap:butt;stroke-linejoin:miter;stroke-opacity:1"
       d="M 179.63308,116.02849 151.28486,86.924323"
       id="path3717-0"
       inkscape:connector-curvature="0" />
    <path
       style="fill:none;fill-rule:evenodd;stroke:#000000;stroke-width:0.26458332px;stroke-linecap:butt;stroke-linejoin:miter;stroke-opacity:1"
       d="m 137.57375,136.20294 37.30485,-9.54583 -9.02418,-25.08817 -36.66369,15.02456 z"
       id="path3761"
       inkscape:connector-curvature="0"
       sodipodi:nodetypes="ccccc" />
    <path
       style="fill:#0000ff;stroke-width:0.11811756;stroke-linecap:round;stroke-miterlimit:10;stroke-dasharray:0.11811756, 0.35435268;stroke-dashoffset:0"
       d="m 137.57375,136.20294 c -0.10028,-0.16492 -8.09455,-19.39795 -8.09455,-19.4743 0,-0.0462 0.20198,-0.16088 0.44885,-0.25494 0.24686,-0.0941 6.08123,-2.47936 12.96527,-5.30067 6.88403,-2.8213 12.52629,-5.11978 12.53834,-5.10773 0.0361,0.0361 5.51168,24.19502 5.48834,24.2151 -0.0396,0.0341 -23.11958,5.99341 -23.212,5.99341 -0.0501,0 -0.11055,-0.0319 -0.13425,-0.0709 z"
       id="path3763"
       inkscape:connector-curvature="0" />
    <path
       style="fill:#0000ff;stroke-width:0.11811756;stroke-linecap:round;stroke-miterlimit:10;stroke-dasharray:0.11811756, 0.35435268;stroke-dashoffset:0"
       d="m 158.54582,118.10733 c -1.50045,-6.6134 -2.76001,-12.16712 -2.77864,-12.21909 -0.0186,-0.052 2.20034,-0.90032 4.91061,-2.0077 4.25006,-1.73654 4.96285,-2.09527 5.07824,-1.97989 0.0736,0.0736 2.05021,5.50219 4.41291,11.94105 2.36269,6.43887 4.37598,11.92269 4.47397,12.18627 0.098,0.26359 0.14788,0.52826 0.11086,0.58816 -0.0606,0.0981 -13.12154,3.49886 -13.43329,3.49886 -0.0955,0 -0.77208,-3.18101 -2.77466,-12.00766 z"
       id="path3765"
       inkscape:connector-curvature="0"
       sodipodi:nodetypes="cccccccsc" />
    <path
       style="fill:none;fill-rule:evenodd;stroke:#000000;stroke-width:0.26458332px;stroke-linecap:butt;stroke-linejoin:miter;stroke-opacity:1"
       d="m 119.91284,128.87968 13.22943,-2.84684 m 38.69283,-8.3263 7.79798,-1.67805"
       id="path3767"
       inkscape:connector-curvature="0"
       sodipodi:nodetypes="cccc" />
    <path
       style="fill:none;fill-rule:evenodd;stroke:#000000;stroke-width:0.26499999;stroke-linecap:butt;stroke-linejoin:miter;stroke-miterlimit:4;stroke-dasharray:0.52999997, 1.05999995;stroke-dashoffset:0;stroke-opacity:1"
       d="m 137.57374,136.20293 28.28068,-34.63399"
       id="path3772"
       inkscape:connector-curvature="0"
       sodipodi:nodetypes="cc" />
  </g>
</svg>
